<svg viewBox="0 0 96 96" xmlns="http://www.w3.org/2000/svg" xmlns:xlink="http://www.w3.org/1999/xlink" id="Icons_Explosion" overflow="hidden"><style>
.MsftOfcThm_Accent1_Fill_v2 {
 fill:#4472C4; 
}
.MsftOfcThm_Accent1_Stroke_v2 {
 stroke:#4472C4; 
}
</style>
<path d="M90.55 80 51.47 12C50.3711 10.0836 47.9267 9.42084 46.0103 10.5197 45.3942 10.873 44.8833 11.3839 44.53 12L5.45 80C4.34543 81.9132 5.00093 84.3595 6.9141 85.4641 7.52097 85.8145 8.20924 85.9993 8.91 86L87.09 86C89.2991 85.9977 91.0882 84.205 91.0859 81.9959 91.0852 81.2951 90.9004 80.6069 90.55 80ZM58.67 73.17 55.43 73.17 58.22 69 52 70.73 53.43 62.73 49.04 70.73 47.74 58.12 45.61 70.12 43.27 66.2 43.48 71.11 37.72 68 40.54 73.14 36 73.14 27.09 66.06 35.17 66.99 28 55.44 40.17 62.88 38 48.65 44 61.1 47.83 35.87 50.17 58.54 61.67 45.9 55.5 62.09 66.67 58.93 60.33 68.43 68.2 69.43Z" class="MsftOfcThm_Accent1_Fill_v2 MsftOfcThm_Accent1_Stroke_v2" stroke="#4472C4" fill="#4472C4"/></svg>